<mxfile host="app.diagrams.net" modified="2023-02-15T11:45:17.888Z" agent="5.0 (Windows NT 10.0; Win64; x64) AppleWebKit/537.36 (KHTML, like Gecko) Chrome/109.0.0.0 Safari/537.36 Edg/109.0.1518.78" etag="j-nZsUh-HWPewuMGSJMr" version="20.8.20" type="github">
  <diagram id="C5RBs43oDa-KdzZeNtuy" name="Page-1">
    <mxGraphModel dx="2854" dy="1156" grid="1" gridSize="10" guides="1" tooltips="1" connect="1" arrows="1" fold="1" page="1" pageScale="1" pageWidth="827" pageHeight="1169" math="0" shadow="0">
      <root>
        <mxCell id="WIyWlLk6GJQsqaUBKTNV-0" />
        <mxCell id="WIyWlLk6GJQsqaUBKTNV-1" parent="WIyWlLk6GJQsqaUBKTNV-0" />
        <mxCell id="uDCEw50RylDOGRhmZDIv-4" value="Endpoint 1 - no-op" style="rounded=0;whiteSpace=wrap;html=1;verticalAlign=top;" vertex="1" parent="WIyWlLk6GJQsqaUBKTNV-1">
          <mxGeometry x="-550" y="260" width="600" height="390" as="geometry" />
        </mxCell>
        <mxCell id="uDCEw50RylDOGRhmZDIv-8" style="edgeStyle=orthogonalEdgeStyle;rounded=0;orthogonalLoop=1;jettySize=auto;html=1;exitX=1;exitY=0.25;exitDx=0;exitDy=0;entryX=0;entryY=0.25;entryDx=0;entryDy=0;startArrow=none;" edge="1" parent="WIyWlLk6GJQsqaUBKTNV-1" source="uDCEw50RylDOGRhmZDIv-20" target="uDCEw50RylDOGRhmZDIv-0">
          <mxGeometry relative="1" as="geometry" />
        </mxCell>
        <mxCell id="WIyWlLk6GJQsqaUBKTNV-3" value="/main/endpoint" style="rounded=1;whiteSpace=wrap;html=1;fontSize=12;glass=0;strokeWidth=1;shadow=0;" parent="WIyWlLk6GJQsqaUBKTNV-1" vertex="1">
          <mxGeometry x="-510" y="380" width="120" height="70" as="geometry" />
        </mxCell>
        <mxCell id="uDCEw50RylDOGRhmZDIv-11" style="edgeStyle=orthogonalEdgeStyle;rounded=0;orthogonalLoop=1;jettySize=auto;html=1;exitX=0;exitY=0.75;exitDx=0;exitDy=0;entryX=1;entryY=0.75;entryDx=0;entryDy=0;startArrow=none;" edge="1" parent="WIyWlLk6GJQsqaUBKTNV-1" source="uDCEw50RylDOGRhmZDIv-12" target="WIyWlLk6GJQsqaUBKTNV-3">
          <mxGeometry relative="1" as="geometry" />
        </mxCell>
        <mxCell id="uDCEw50RylDOGRhmZDIv-0" value="/aggregator/endpoint" style="rounded=1;whiteSpace=wrap;html=1;fontSize=12;glass=0;strokeWidth=1;shadow=0;" vertex="1" parent="WIyWlLk6GJQsqaUBKTNV-1">
          <mxGeometry x="-110" y="370" width="120" height="100" as="geometry" />
        </mxCell>
        <mxCell id="uDCEw50RylDOGRhmZDIv-5" value="Endpoint 2 - json encoding" style="rounded=0;whiteSpace=wrap;html=1;verticalAlign=top;" vertex="1" parent="WIyWlLk6GJQsqaUBKTNV-1">
          <mxGeometry x="80" y="260" width="570" height="390" as="geometry" />
        </mxCell>
        <mxCell id="uDCEw50RylDOGRhmZDIv-16" style="edgeStyle=orthogonalEdgeStyle;rounded=0;orthogonalLoop=1;jettySize=auto;html=1;exitX=1;exitY=0.25;exitDx=0;exitDy=0;entryX=0;entryY=0.25;entryDx=0;entryDy=0;" edge="1" parent="WIyWlLk6GJQsqaUBKTNV-1" source="uDCEw50RylDOGRhmZDIv-0" target="uDCEw50RylDOGRhmZDIv-13">
          <mxGeometry relative="1" as="geometry" />
        </mxCell>
        <mxCell id="uDCEw50RylDOGRhmZDIv-27" style="edgeStyle=orthogonalEdgeStyle;rounded=0;orthogonalLoop=1;jettySize=auto;html=1;exitX=0;exitY=0.5;exitDx=0;exitDy=0;entryX=1;entryY=0.25;entryDx=0;entryDy=0;" edge="1" parent="WIyWlLk6GJQsqaUBKTNV-1" source="uDCEw50RylDOGRhmZDIv-6" target="uDCEw50RylDOGRhmZDIv-13">
          <mxGeometry relative="1" as="geometry">
            <Array as="points">
              <mxPoint x="500" y="400" />
              <mxPoint x="400" y="400" />
              <mxPoint x="400" y="405" />
            </Array>
          </mxGeometry>
        </mxCell>
        <mxCell id="uDCEw50RylDOGRhmZDIv-6" value="/backend1/endpoint" style="rounded=1;whiteSpace=wrap;html=1;fontSize=12;glass=0;strokeWidth=1;shadow=0;" vertex="1" parent="WIyWlLk6GJQsqaUBKTNV-1">
          <mxGeometry x="500" y="350" width="120" height="70" as="geometry" />
        </mxCell>
        <mxCell id="uDCEw50RylDOGRhmZDIv-29" style="edgeStyle=orthogonalEdgeStyle;rounded=0;orthogonalLoop=1;jettySize=auto;html=1;exitX=0;exitY=0.5;exitDx=0;exitDy=0;entryX=1;entryY=0.75;entryDx=0;entryDy=0;" edge="1" parent="WIyWlLk6GJQsqaUBKTNV-1" source="uDCEw50RylDOGRhmZDIv-7" target="uDCEw50RylDOGRhmZDIv-13">
          <mxGeometry relative="1" as="geometry">
            <Array as="points">
              <mxPoint x="380" y="485" />
              <mxPoint x="380" y="455" />
            </Array>
          </mxGeometry>
        </mxCell>
        <mxCell id="uDCEw50RylDOGRhmZDIv-7" value="/backend2/endpoint" style="rounded=1;whiteSpace=wrap;html=1;fontSize=12;glass=0;strokeWidth=1;shadow=0;" vertex="1" parent="WIyWlLk6GJQsqaUBKTNV-1">
          <mxGeometry x="500" y="450" width="120" height="70" as="geometry" />
        </mxCell>
        <mxCell id="uDCEw50RylDOGRhmZDIv-21" style="edgeStyle=orthogonalEdgeStyle;rounded=0;orthogonalLoop=1;jettySize=auto;html=1;exitX=1;exitY=0.25;exitDx=0;exitDy=0;entryX=0;entryY=0.25;entryDx=0;entryDy=0;" edge="1" parent="WIyWlLk6GJQsqaUBKTNV-1" source="uDCEw50RylDOGRhmZDIv-13" target="uDCEw50RylDOGRhmZDIv-6">
          <mxGeometry relative="1" as="geometry">
            <Array as="points">
              <mxPoint x="380" y="398" />
              <mxPoint x="380" y="368" />
            </Array>
          </mxGeometry>
        </mxCell>
        <mxCell id="uDCEw50RylDOGRhmZDIv-26" style="edgeStyle=orthogonalEdgeStyle;rounded=0;orthogonalLoop=1;jettySize=auto;html=1;exitX=0;exitY=0.75;exitDx=0;exitDy=0;entryX=1;entryY=0.75;entryDx=0;entryDy=0;" edge="1" parent="WIyWlLk6GJQsqaUBKTNV-1" source="uDCEw50RylDOGRhmZDIv-13" target="uDCEw50RylDOGRhmZDIv-0">
          <mxGeometry relative="1" as="geometry" />
        </mxCell>
        <mxCell id="uDCEw50RylDOGRhmZDIv-28" style="edgeStyle=orthogonalEdgeStyle;rounded=0;orthogonalLoop=1;jettySize=auto;html=1;exitX=1;exitY=0.5;exitDx=0;exitDy=0;entryX=0;entryY=0.25;entryDx=0;entryDy=0;" edge="1" parent="WIyWlLk6GJQsqaUBKTNV-1" source="uDCEw50RylDOGRhmZDIv-13" target="uDCEw50RylDOGRhmZDIv-7">
          <mxGeometry relative="1" as="geometry" />
        </mxCell>
        <mxCell id="uDCEw50RylDOGRhmZDIv-13" value="/aggregator/endpoint" style="rounded=1;whiteSpace=wrap;html=1;fontSize=12;glass=0;strokeWidth=1;shadow=0;" vertex="1" parent="WIyWlLk6GJQsqaUBKTNV-1">
          <mxGeometry x="180" y="380" width="120" height="100" as="geometry" />
        </mxCell>
        <mxCell id="uDCEw50RylDOGRhmZDIv-22" value="" style="edgeStyle=orthogonalEdgeStyle;rounded=0;orthogonalLoop=1;jettySize=auto;html=1;exitX=0;exitY=0.75;exitDx=0;exitDy=0;entryX=1;entryY=0.75;entryDx=0;entryDy=0;endArrow=none;" edge="1" parent="WIyWlLk6GJQsqaUBKTNV-1" source="uDCEw50RylDOGRhmZDIv-0" target="uDCEw50RylDOGRhmZDIv-12">
          <mxGeometry relative="1" as="geometry">
            <mxPoint x="-150" y="433" as="sourcePoint" />
            <mxPoint x="-390" y="433" as="targetPoint" />
          </mxGeometry>
        </mxCell>
        <mxCell id="uDCEw50RylDOGRhmZDIv-12" value="response &lt;br&gt;modifier" style="shape=parallelogram;perimeter=parallelogramPerimeter;whiteSpace=wrap;html=1;fixedSize=1;" vertex="1" parent="WIyWlLk6GJQsqaUBKTNV-1">
          <mxGeometry x="-320" y="420" width="100" height="40" as="geometry" />
        </mxCell>
        <mxCell id="uDCEw50RylDOGRhmZDIv-30" value="" style="edgeStyle=orthogonalEdgeStyle;rounded=0;orthogonalLoop=1;jettySize=auto;html=1;exitX=1;exitY=0.25;exitDx=0;exitDy=0;entryX=0;entryY=0.25;entryDx=0;entryDy=0;endArrow=none;" edge="1" parent="WIyWlLk6GJQsqaUBKTNV-1" source="WIyWlLk6GJQsqaUBKTNV-3" target="uDCEw50RylDOGRhmZDIv-20">
          <mxGeometry relative="1" as="geometry">
            <mxPoint x="-390" y="398" as="sourcePoint" />
            <mxPoint x="-150" y="395" as="targetPoint" />
          </mxGeometry>
        </mxCell>
        <mxCell id="uDCEw50RylDOGRhmZDIv-31" value="request" style="edgeLabel;html=1;align=center;verticalAlign=middle;resizable=0;points=[];" vertex="1" connectable="0" parent="uDCEw50RylDOGRhmZDIv-30">
          <mxGeometry x="-0.3333" y="-1" relative="1" as="geometry">
            <mxPoint y="1" as="offset" />
          </mxGeometry>
        </mxCell>
        <mxCell id="uDCEw50RylDOGRhmZDIv-20" value="http client" style="shape=parallelogram;perimeter=parallelogramPerimeter;whiteSpace=wrap;html=1;fixedSize=1;" vertex="1" parent="WIyWlLk6GJQsqaUBKTNV-1">
          <mxGeometry x="-240" y="370" width="90" height="40" as="geometry" />
        </mxCell>
      </root>
    </mxGraphModel>
  </diagram>
</mxfile>
